<svg width="149" height="65" viewBox="0 0 149 65" fill="none" xmlns="http://www.w3.org/2000/svg">
<g clip-path="url(#clip0_4488_1864)">
<path d="M43.2856 20.6752C43.2774 19.844 43.1956 18.3944 42.7779 17.0963L42.696 16.8465L42.5281 16.6417C41.0703 14.8359 38.0769 12.5919 33.6175 9.96293L41.7009 0L22.1518 4.38565L22.0085 4.45117C21.386 4.74601 6.68118 11.7074 2.69683 16.6417L2.53307 16.8465L2.45115 17.0963C2.03347 18.3944 1.94747 19.8481 1.93928 20.6793C1.15715 21.4737 -0.1532 23.1199 0.0146917 25.0977L0.0228645 25.1755L1.2063 31.15L4.15874 36.3342L3.9663 36.195L5.57967 41.9811L3.69602 45.0318L1.46838 46.0432L1.33734 46.7762C1.31687 46.8991 0.809087 49.8392 1.6854 53.2134C2.51257 56.4034 4.74429 60.5884 10.686 62.4311C11.1365 62.5826 16.7793 64.4581 21.902 64.4581C22.1313 64.4581 22.3565 64.4581 22.5777 64.4458C22.7988 64.454 23.024 64.4581 23.2533 64.4581C28.3065 64.4581 33.8633 62.6358 34.4488 62.4393C38.7239 61.2558 41.7869 58.2502 43.3102 53.7458C44.4281 50.4371 44.3135 47.4805 44.3053 47.3577L44.2684 46.5592L41.5535 45.0768L39.6412 41.977L41.2546 36.195L41.0621 36.3342L44.0186 31.15L45.1857 25.2492L44.7271 25.1592L44.5305 25.0404L45.2062 25.0977C45.3782 23.1199 44.0637 21.4737 43.2815 20.6793L43.2856 20.6752Z" fill="#FFF539"/>
<path d="M34.0351 61.0794C34.0351 61.0794 27.7822 63.2169 22.5816 63.0244C17.3811 63.2169 11.1282 61.0794 11.1282 61.0794C0.800818 57.8894 2.73772 47.0133 2.73772 47.0133L4.6787 46.1329L7.11516 42.1895L6.43539 39.7489L7.50415 40.5311L6.60739 37.7588L2.55341 30.6459L1.43141 24.9704C1.26352 23.0089 3.3683 21.285 3.3683 21.285C3.3683 21.285 3.25776 19.2211 3.80238 17.5299C7.62703 12.7921 22.6144 5.73248 22.6144 5.73248L38.0318 2.27637L31.4717 10.3597C35.452 12.6242 39.6452 15.331 41.4265 17.534C41.9711 19.2252 41.8605 21.2891 41.8605 21.2891C41.8605 21.2891 43.9694 23.013 43.7974 24.9745L42.6754 30.65L38.6215 37.7629L37.7246 40.5352L38.7934 39.753L38.1136 42.1936L40.5501 46.137L42.8924 47.4146C42.8924 47.4146 43.3797 58.52 34.0351 61.0794Z" fill="#111737"/>
<path d="M36.1689 30.9251C36.1689 30.9251 36.2017 30.749 36.2549 30.4255C36.259 30.4051 36.263 30.3846 36.2671 30.3682L36.2794 30.2822C36.2876 30.229 36.2959 30.1717 36.3081 30.1143V30.1021C36.3163 30.0611 36.3204 30.0202 36.3286 29.9792C36.3613 29.7622 36.4023 29.5124 36.4433 29.2298C36.4433 29.2216 36.4433 29.2135 36.4474 29.2094C36.4596 29.1356 36.4678 29.0578 36.4801 28.9841C36.4924 28.9063 36.5005 28.8244 36.5128 28.7425C36.5251 28.6647 36.5373 28.5828 36.5455 28.5009C36.5537 28.4518 36.5619 28.4027 36.566 28.3576C36.5783 28.288 36.5866 28.2143 36.5989 28.1365C36.6111 28.03 36.6233 27.9195 36.6397 27.8089C36.7298 27.1087 36.824 26.3143 36.9182 25.4379C36.9182 25.3765 36.9263 25.3192 36.9345 25.2619C36.955 25.0653 36.9714 24.8647 36.9919 24.6599C37 24.5698 37.0084 24.4797 37.0206 24.3855C37.0288 24.2463 37.0452 24.103 37.0575 23.9556C37.209 22.1743 37.3317 20.1514 37.3645 18.018C37.3686 17.674 37.3728 17.3259 37.3728 16.9738C35.9683 15.8722 34.5473 14.869 33.1387 13.9599H33.1346L28.5728 11.9165L23.4706 14.7256L27.7621 10.8764L31.5949 5.7373C31.5949 5.7373 27.8562 6.42934 22.6024 8.53823L21.4025 9.02961C17.324 10.7618 12.4962 13.3088 7.83203 16.9738C7.83203 17.3259 7.83613 17.674 7.84023 18.0221C7.89756 22.0351 8.27837 25.6714 8.59368 28.0505C8.72062 28.9882 8.83529 29.7335 8.91309 30.2249C8.9868 30.659 9.03186 30.9006 9.03596 30.9251L8.59368 30.7695L7.83203 30.5034C7.83203 30.5034 7.97536 31.1217 8.30295 32.1086C8.46266 32.5836 8.6674 33.1446 8.91719 33.767C8.92129 33.7752 8.92129 33.7793 8.92539 33.7875C9.16289 34.3731 9.44132 35.0037 9.76892 35.667C9.92452 35.9864 10.0925 36.314 10.2726 36.6457C10.7558 37.5261 11.3168 38.4393 11.972 39.3361C12.6805 40.3066 13.4953 41.2525 14.429 42.1165C14.4863 42.1698 14.5478 42.223 14.6051 42.2762C15.4282 43.0174 16.3454 43.6931 17.3569 44.2623C17.451 44.3114 17.5492 44.3646 17.6434 44.4179C17.7417 44.467 17.8359 44.5202 17.9342 44.5653C18.0201 44.6103 18.1062 44.6513 18.1922 44.6922C18.3642 44.7782 18.5444 44.856 18.7245 44.9338C18.7778 44.9543 18.831 44.9789 18.8884 44.9994C18.9457 45.028 19.003 45.0485 19.0645 45.0731C19.1259 45.0976 19.1832 45.1222 19.2446 45.1427C19.3593 45.1877 19.478 45.2287 19.5927 45.2696C19.7196 45.3147 19.8507 45.3556 19.9817 45.3966L20.1701 45.458C20.2438 45.4785 20.3216 45.503 20.3994 45.5235C20.5263 45.5563 20.6574 45.5931 20.7843 45.6259C20.8621 45.6423 20.9399 45.6627 21.0218 45.6832C21.03 45.6832 21.0423 45.6873 21.0546 45.6873C21.1488 45.7119 21.2388 45.7282 21.333 45.7487C21.4231 45.7692 21.5132 45.7856 21.6074 45.802C21.6197 45.8061 21.6401 45.8101 21.6565 45.8101C21.7425 45.8265 21.8244 45.8429 21.9145 45.8552C22.0251 45.8757 22.1438 45.892 22.2585 45.9084C22.3608 45.9207 22.4591 45.9371 22.5615 45.9453H22.582H22.6024H22.6147C23.4706 45.8429 24.2976 45.675 25.0634 45.4416C27.2582 44.7823 29.0929 43.6358 30.6203 42.2599C30.7104 42.178 30.7964 42.0961 30.8824 42.0142C30.911 41.9896 30.9397 41.9609 30.9725 41.9323C31.0462 41.8627 31.1199 41.7889 31.1936 41.7152C31.21 41.6989 31.2263 41.6825 31.2427 41.6661C31.3001 41.6129 31.3533 41.5555 31.4065 41.5023C31.4474 41.4613 31.4884 41.4163 31.5294 41.3754C31.6399 41.2607 31.7463 41.146 31.8528 41.0314C31.906 40.97 31.9593 40.9126 32.0126 40.8512C32.0822 40.7775 32.1477 40.6997 32.2091 40.626C32.2624 40.5646 32.3155 40.5031 32.3646 40.4417C32.5161 40.2656 32.6595 40.0896 32.8029 39.9053C32.8725 39.8152 32.9461 39.721 33.0157 39.6268C33.0321 39.6064 33.0486 39.5818 33.069 39.5572C33.11 39.4999 33.1551 39.4426 33.196 39.3811C33.237 39.332 33.2737 39.2788 33.3146 39.2255C33.372 39.1395 33.4335 39.0576 33.4949 38.9716C33.5645 38.8693 33.6382 38.7628 33.7078 38.6604C33.7733 38.5662 33.8348 38.468 33.8962 38.3738C33.9085 38.3574 33.9166 38.341 33.9289 38.3287C33.9903 38.2305 34.0558 38.1322 34.1173 38.0339C34.1787 37.9356 34.2401 37.8373 34.3015 37.7391C34.3056 37.7309 34.3098 37.7227 34.3098 37.7186C34.3753 37.6121 34.4367 37.5098 34.4982 37.4074C34.6742 37.1044 34.8421 36.8095 34.9977 36.5147C34.9977 36.5147 34.999 36.5133 35.0017 36.5106C35.1328 36.2608 35.2639 36.0151 35.3868 35.7694C35.395 35.753 35.403 35.7367 35.4112 35.7162C35.4767 35.5892 35.5382 35.4582 35.5996 35.3313C35.747 35.02 35.8863 34.717 36.0133 34.4181C36.0419 34.3526 36.0705 34.283 36.0992 34.2174C36.1524 34.0987 36.2016 33.9758 36.2507 33.8571C36.263 33.8202 36.2795 33.7834 36.2958 33.7465C36.345 33.6278 36.3899 33.509 36.435 33.3944L36.4718 33.2961C36.5251 33.1528 36.5784 33.0135 36.6275 32.8784C36.6807 32.7433 36.7257 32.6122 36.7708 32.4894C36.779 32.4566 36.7912 32.4198 36.8035 32.387C36.8199 32.3379 36.8364 32.2928 36.8527 32.2478C36.865 32.2109 36.8773 32.1741 36.8896 32.1413C36.8896 32.1372 36.8937 32.1331 36.8937 32.129C36.8937 32.1249 36.8937 32.1167 36.8937 32.1086C36.9019 32.0922 36.906 32.0758 36.9101 32.0635C36.9265 32.0103 36.9428 31.9571 36.9592 31.9079C37.0452 31.654 37.1148 31.4288 37.1722 31.2363C37.1803 31.2036 37.1884 31.1708 37.1966 31.1381C37.2498 30.9579 37.2868 30.8105 37.3196 30.7081C37.3196 30.6958 37.3236 30.6835 37.3277 30.6753C37.3359 30.6303 37.3441 30.5975 37.3523 30.5689C37.3564 30.5525 37.3604 30.5402 37.3604 30.5279C37.3604 30.5279 37.3645 30.5156 37.3645 30.5115C37.3645 30.5074 37.3687 30.5034 37.3687 30.5034L36.7995 30.704L36.1648 30.9251H36.1689ZM34.4613 31.9611C34.4613 31.9939 34.4572 32.0308 34.4572 32.0676C34.4531 32.215 34.4449 32.3584 34.4326 32.5017C34.3794 33.1364 34.2484 33.7261 34.0641 34.2748C33.9577 34.5942 33.8307 34.9013 33.6915 35.192C33.6915 35.192 33.6873 35.192 33.6873 35.1961C32.5448 37.5589 30.4442 38.9798 29.5392 39.5122C29.2649 39.6719 29.1011 39.7497 29.1011 39.7497C28.0692 38.5744 26.4435 37.8292 25.0717 37.3746C25.0594 37.3705 25.0471 37.3664 25.0307 37.3623C24.2609 37.1085 23.4624 36.9815 22.6639 36.9733H22.6065C22.5615 36.9733 22.5123 36.9733 22.4673 36.9774C21.6565 36.9897 20.8497 37.1248 20.0676 37.3828C18.9005 37.7718 17.5493 38.3738 16.5379 39.2747C16.37 39.4221 16.2102 39.5818 16.0627 39.7497C16.0587 39.7456 16.0546 39.7456 16.0506 39.7456C15.8253 39.6309 12.3078 37.8578 11.1039 34.283C10.9196 33.7342 10.7886 33.1364 10.7313 32.4976C10.6494 31.5435 10.7354 30.487 11.0671 29.3322C11.0671 29.3322 18.2291 34.9955 22.582 34.9955C22.6434 34.9955 22.7048 34.9955 22.7621 34.9914C22.7744 34.9955 22.7826 34.9914 22.7949 34.9914C22.8522 34.9914 22.9135 34.9873 22.975 34.9832C22.9832 34.9832 22.9915 34.9832 22.9997 34.9832C23.0611 34.9791 23.1225 34.975 23.1839 34.9668C23.2658 34.9586 23.3477 34.9504 23.4296 34.9381C23.4951 34.93 23.5606 34.9177 23.6261 34.9054C23.6384 34.9054 23.6467 34.9054 23.6589 34.9013C23.7204 34.8931 23.7817 34.8808 23.8472 34.8685C23.9168 34.8522 23.9905 34.8358 24.0683 34.8194H24.0807C24.1503 34.803 24.22 34.7866 24.2896 34.7662C24.3633 34.7498 24.4411 34.7293 24.5148 34.7088C24.7113 34.6556 24.9079 34.5983 25.1045 34.5327C25.1536 34.5164 25.2027 34.4959 25.2519 34.4836C25.3174 34.459 25.3788 34.4386 25.4443 34.414C25.518 34.3894 25.5876 34.3649 25.6614 34.3362C25.8825 34.2543 26.0995 34.1642 26.3206 34.0741C26.3821 34.0496 26.4394 34.025 26.5008 33.9963C26.7383 33.8939 26.9799 33.7834 27.2215 33.6687C27.3976 33.5827 27.5737 33.4967 27.7498 33.4066C27.8112 33.378 27.8685 33.3493 27.9258 33.3207L27.9503 33.3084C28.0117 33.2756 28.0732 33.2428 28.1347 33.2142C28.1838 33.1855 28.233 33.161 28.2821 33.1364C28.2862 33.1323 28.2903 33.1282 28.2944 33.1282C28.4049 33.0709 28.5155 33.0094 28.622 32.948C28.6424 32.9398 28.6546 32.9316 28.6751 32.9234C28.7202 32.8948 28.7694 32.8702 28.8185 32.8416C28.8759 32.8129 28.929 32.7801 28.9904 32.7433C28.9904 32.7433 28.9946 32.7433 28.9987 32.7392C29.1011 32.6819 29.2035 32.6245 29.3017 32.5672C29.3263 32.5549 29.3508 32.5385 29.3794 32.5221C29.4163 32.5017 29.4614 32.4771 29.4983 32.4525C29.6129 32.387 29.7235 32.3174 29.8341 32.2519C29.875 32.2273 29.916 32.2027 29.9569 32.1782C29.9938 32.1577 30.0264 32.1372 30.0592 32.1168C30.1247 32.0758 30.1861 32.0389 30.2516 31.998C30.2844 31.9816 30.3172 31.9611 30.3458 31.9407C30.4277 31.8915 30.5057 31.8424 30.5835 31.7892C30.6285 31.7646 30.6694 31.74 30.7104 31.7114C30.7554 31.6827 30.8045 31.6499 30.8496 31.6213C30.9151 31.5803 30.9807 31.5394 31.0462 31.4943C31.0912 31.4657 31.1362 31.437 31.1772 31.4083C31.2263 31.3797 31.2755 31.3469 31.3246 31.3141C31.3533 31.2978 31.3819 31.2773 31.4106 31.2568C31.4474 31.2322 31.4884 31.2077 31.5253 31.1831C31.5867 31.1422 31.644 31.1012 31.7014 31.0603C31.7136 31.0562 31.7217 31.048 31.7299 31.0439C31.7872 31.007 31.8406 30.9702 31.8938 30.9333C31.9061 30.9251 31.9184 30.9169 31.9306 30.9088C32.2501 30.6917 32.5408 30.487 32.8029 30.3027C32.8643 30.2577 32.9216 30.2167 32.979 30.1717C33.1059 30.0816 33.2246 29.9956 33.331 29.9178C33.3556 29.8973 33.3801 29.8809 33.4047 29.8645C33.5562 29.754 33.6833 29.6557 33.7857 29.5779C33.8348 29.5411 33.8798 29.5083 33.9208 29.4755C33.9576 29.4469 33.9945 29.4182 34.0231 29.3977L34.0477 29.3773C34.0477 29.3773 34.06 29.365 34.0682 29.3609C34.0723 29.3568 34.0764 29.3568 34.0805 29.3527L34.0928 29.3404L34.0968 29.3363C34.3548 30.229 34.4613 31.0644 34.4613 31.8383V31.9652V31.9611Z" fill="#FFF539"/>
<path d="M19.109 35.716C19.109 35.716 13.9699 34.1436 13.0117 33.21C13.0567 33.9348 13.7856 35.6137 14.5432 35.974C15.3007 36.3344 18.4292 35.8962 19.109 35.716Z" fill="#FFFEFF"/>
<path d="M25.4941 35.716C25.4941 35.716 30.6332 34.1436 31.5914 33.21C31.5463 33.9348 30.8175 35.6137 30.0599 35.974C29.3023 36.3344 26.1738 35.8962 25.4941 35.716Z" fill="#FFFEFF"/>
<path d="M23.5681 30.3025L24.301 29.0945L23.0971 29.8152C22.7982 29.6596 22.4379 29.6555 22.1307 29.8029L20.8941 29.0576L21.6393 30.2943C21.5001 30.5809 21.496 30.9126 21.623 31.2034L20.8613 32.4646L22.102 31.7152C22.3928 31.8667 22.7327 31.879 23.0275 31.7521L24.2683 32.4973L23.5394 31.2893C23.7073 30.9822 23.7196 30.6178 23.5681 30.3025ZM22.9784 31.1419C22.7736 31.3549 22.4338 31.3549 22.2249 31.1419C22.0161 30.9372 22.0161 30.5973 22.2249 30.3885C22.4338 30.1796 22.7736 30.1796 22.9784 30.3885C23.1872 30.5973 23.1872 30.9372 22.9784 31.1419Z" fill="#111737"/>
<path d="M4.34233 27.5137L5.18181 26.9117L4.39967 28.0378C4.44471 28.4555 4.4775 28.7217 4.4775 28.7217C4.85423 29.2909 5.29239 29.5693 5.65683 29.7004C6.09499 29.8601 6.43073 29.8109 6.43073 29.8109C6.10723 27.4441 5.96804 25.241 5.90662 23.7382L5.17771 24.25L5.51347 23.7709L5.88612 23.2386C5.85746 22.305 5.85748 21.748 5.85748 21.748C4.85013 21.875 4.17856 22.9438 4.16218 22.9724C4.02295 24.0166 4.19901 26.1624 4.33823 27.5178L4.34233 27.5137Z" fill="#FFF539"/>
<path d="M3.71189 23.5498C3.71189 23.5498 3.79377 26.4285 4.04765 28.0215C4.04765 28.0215 3.6791 27.8658 3.53169 27.5956C3.38427 27.3253 3.31055 23.9306 3.31055 23.9306C3.31055 23.9306 3.39658 23.6849 3.71189 23.5498Z" fill="#FFFEFF"/>
<path d="M6.43164 22.751L6.82888 28.8401C6.82888 28.8401 7.18102 28.4757 7.36939 28.0948C7.16464 26.1907 7.07458 24.4872 7.03363 23.3243C6.91897 23.1687 6.706 22.9189 6.43164 22.751Z" fill="#FFFEFF"/>
<path d="M5.00977 20.9288C5.1408 20.9288 5.27183 20.937 5.40696 20.9575L6.0253 21.0476C5.8615 19.9378 6.00076 18.5742 6.00076 18.5742C6.00076 18.5742 5.407 18.8527 5.23911 19.2908C5.10807 19.6307 5.03844 20.5398 5.01387 20.9329L5.00977 20.9288Z" fill="#FFFEFF"/>
<path d="M40.895 27.5137L40.0556 26.9117L40.8377 28.0378C40.7926 28.4555 40.7599 28.7217 40.7599 28.7217C40.3832 29.2909 39.945 29.5693 39.5806 29.7004C39.1424 29.8601 38.8066 29.8109 38.8066 29.8109C39.1301 27.4441 39.2694 25.241 39.3308 23.7382L40.0596 24.25L39.7239 23.7709L39.3512 23.2386C39.3799 22.305 39.3799 21.748 39.3799 21.748C40.3873 21.875 41.0588 22.9438 41.0752 22.9724C41.2144 24.0166 41.0383 26.1624 40.8991 27.5178L40.895 27.5137Z" fill="#FFF539"/>
<path d="M41.5253 23.5498C41.5253 23.5498 41.4433 26.4285 41.1895 28.0215C41.1895 28.0215 41.558 27.8658 41.7054 27.5956C41.8528 27.3253 41.9266 23.9306 41.9266 23.9306C41.9266 23.9306 41.8406 23.6849 41.5253 23.5498Z" fill="#FFFEFF"/>
<path d="M38.8049 22.751L38.4077 28.8401C38.4077 28.8401 38.0555 28.4757 37.8672 28.0948C38.0719 26.1907 38.162 24.4872 38.203 23.3243C38.3176 23.1687 38.5306 22.9189 38.8049 22.751Z" fill="#FFFEFF"/>
<path d="M40.2264 20.9288C40.0954 20.9288 39.9644 20.937 39.8292 20.9575L39.2109 21.0476C39.3747 19.9378 39.2355 18.5742 39.2355 18.5742C39.2355 18.5742 39.8293 18.8527 39.9972 19.2908C40.1282 19.6307 40.1978 20.5398 40.2223 20.9329L40.2264 20.9288Z" fill="#FFFEFF"/>
<path d="M5.06688 31.3254L6.17659 31.5465C6.17659 31.5465 7.59346 35.5759 8.66223 36.6242C8.66223 36.6242 4.95632 33.8069 5.06688 31.3213V31.3254Z" fill="#FFFEFF"/>
<path d="M40.1325 31.3254L39.0228 31.5465C39.0228 31.5465 37.6059 35.5759 36.5371 36.6242C36.5371 36.6242 40.243 33.8069 40.1325 31.3213V31.3254Z" fill="#FFFEFF"/>
<path d="M28.9453 46.2968C28.9248 46.3255 28.9207 46.3582 28.9166 46.391C28.8429 47.0503 29.2606 47.7341 29.883 47.9716C30.1451 48.0699 30.4276 48.0945 30.7061 48.0945C31.2917 48.0945 31.865 47.9839 32.4464 47.9307C32.5201 47.9266 32.5939 47.9184 32.6635 47.9389C32.729 47.9594 32.7822 48.0044 32.8355 48.0494C33.0443 48.2337 33.2368 48.4385 33.4006 48.6637C33.0157 48.418 32.6225 48.3402 32.2376 48.3525C32.3604 48.418 32.471 48.4958 32.5734 48.59C33.0935 49.0936 33.0115 49.9454 33.2818 50.621C33.4415 51.0223 33.7241 51.3622 34.0025 51.6898C34.1418 51.8536 34.281 52.0174 34.4161 52.1812C34.5963 52.2099 34.8133 52.1444 34.9853 52.0215C35.0345 51.9847 35.0795 51.9478 35.1245 51.9028C35.1286 51.9028 35.1327 51.8946 35.1368 51.8905C35.2351 51.7922 35.3129 51.6816 35.3784 51.5629L35.3948 51.5383L35.403 51.526C35.403 51.5219 35.4112 51.5137 35.4112 51.5096V51.5178C35.0877 52.3368 34.4038 52.9511 33.7445 53.5366C33.3924 53.725 33.0361 53.9256 32.7372 54.1959C32.4382 54.4662 32.1967 54.8183 32.1189 55.2155C32.0452 55.6128 32.1598 56.055 32.4628 56.3212C32.5161 56.3703 32.5816 56.4113 32.6512 56.4031C32.7003 56.4031 32.7454 56.3744 32.7863 56.3498C32.9788 56.2393 33.1753 56.1246 33.3719 56.0141C33.982 55.666 34.5922 55.3138 35.2023 54.9658C36.1441 54.028 36.8608 52.906 37.2867 51.6816C37.303 51.6284 37.3235 51.5711 37.3071 51.5178C37.2907 51.4605 37.2416 51.4236 37.1965 51.3868C36.5864 50.9241 35.9599 50.4818 35.317 50.0641C34.8829 49.368 34.6864 48.635 34.6782 47.8979C34.6782 47.8283 34.6782 47.7505 34.6372 47.6932C34.6044 47.644 34.5512 47.6154 34.5021 47.5908C33.9083 47.2591 33.3965 46.7882 33.0238 46.2231C32.9747 46.1494 32.9296 46.0757 32.8559 46.0225C32.7536 45.9487 32.6225 45.9447 32.4997 45.9406C31.6684 45.9201 30.8372 46.0061 30.01 46.0921C29.9158 46.1003 29.8216 46.1125 29.7274 46.1207C29.5145 46.1453 29.3016 46.174 29.0927 46.2149C29.0395 46.2231 28.9821 46.2395 28.9494 46.2845L28.9453 46.2968Z" fill="#FFFEFF"/>
<path d="M31.2674 58.4833C31.2919 58.643 31.3452 58.8149 31.4762 58.905C31.7096 59.0606 32.0085 58.8927 32.242 58.7412C32.3075 58.7003 32.373 58.6594 32.4385 58.6226C32.4385 58.6226 32.4467 58.6225 32.4508 58.6143C33.4418 58.0451 34.5842 57.7381 35.5588 57.1361C35.6407 57.087 35.7185 57.0337 35.7718 56.9599C35.8373 56.8699 35.8619 56.7594 35.8823 56.6529C35.9765 56.1943 36.0625 55.7274 36.1321 55.2646C36.1239 55.2769 36.1158 55.2933 36.1035 55.3056C36.0502 55.3711 35.9724 55.408 35.8946 55.4489C35.5384 55.625 35.1821 55.8011 34.8259 55.9772C34.3099 56.2351 33.7939 56.4891 33.278 56.7471C33.02 56.874 32.7415 57.005 32.4549 56.9722C32.2461 56.9477 32.0618 56.8371 31.9184 56.6856C31.427 57.1319 31.1691 57.824 31.2633 58.4833H31.2674Z" fill="#FFFEFF"/>
<path d="M28.9453 46.2964C28.9248 46.3251 28.9207 46.3578 28.9166 46.3906C28.8429 47.0499 29.2606 47.7337 29.883 47.9712C30.1451 48.0695 30.4276 48.0941 30.7061 48.0941C31.2917 48.0941 31.865 47.9835 32.4464 47.9303C32.5201 47.9262 32.5939 47.918 32.6635 47.9384C32.729 47.9589 32.7822 48.004 32.8355 48.049C33.0443 48.2333 33.2368 48.438 33.4006 48.6632C33.0157 48.4176 32.6225 48.3397 32.2376 48.352C32.3604 48.4176 32.471 48.4954 32.5734 48.5895C33.0935 49.0932 33.0116 49.945 33.2818 50.6206C33.4415 51.0219 33.7241 51.3618 34.0025 51.6894C34.1418 51.8532 34.281 52.017 34.4161 52.1808C34.5963 52.2094 34.8133 52.1439 34.9853 52.0211C35.0345 51.9842 35.0795 51.9474 35.1245 51.9023C35.2146 51.7959 35.3047 51.6812 35.3784 51.5665L35.3948 51.542C35.2801 51.7058 34.6618 51.7795 34.6618 51.7795C34.5103 51.8696 34.15 50.9073 34.0148 50.4773C33.8797 50.0432 33.2777 48.9048 33.2777 48.9048L34.3629 49.8999C34.3629 49.8999 33.6667 47.6027 33.1917 47.2874C32.7208 46.9761 31.1279 47.1686 30.1369 46.9147C29.1459 46.6608 29.7274 46.1162 29.7274 46.1162C29.5145 46.1408 29.3016 46.1694 29.0927 46.2104C29.0395 46.2186 28.9821 46.235 28.9494 46.28L28.9453 46.2964Z" fill="#C6C6C6"/>
<path d="M32.1115 55.2241C32.0378 55.6213 32.1525 56.0635 32.4555 56.3297C32.5087 56.3788 32.5742 56.4198 32.6438 56.4116C32.693 56.4116 32.738 56.3829 32.779 56.3584C32.9715 56.2478 33.168 56.1332 33.3645 56.0226C32.6971 56.301 32.6643 55.1913 32.7299 54.8228C32.7913 54.4501 34.1508 54.057 34.7609 53.2503C35.367 52.4436 35.4038 51.5264 35.4038 51.5264C35.0803 52.3454 34.3965 52.9596 33.7372 53.5411C33.385 53.7294 33.0288 53.9301 32.7299 54.2003C32.4309 54.4706 32.1893 54.8228 32.1115 55.22V55.2241Z" fill="#C6C6C6"/>
<path d="M31.2674 58.4834C31.2919 58.6431 31.3452 58.8151 31.4762 58.9052C31.7096 59.0608 32.0085 58.8929 32.242 58.7414C32.3075 58.7005 32.373 58.6595 32.4385 58.6227C32.0126 58.8274 31.8161 58.4834 31.7137 58.3074C31.6113 58.1272 31.5949 57.3164 32.3812 57.3573C32.9995 57.386 34.7399 56.0552 34.8259 55.9814C34.3099 56.2353 33.7939 56.4892 33.278 56.7472C33.02 56.8741 32.7415 57.0052 32.4549 56.9724C32.2461 56.9478 32.0618 56.8373 31.9184 56.6858C31.427 57.1321 31.1691 57.8242 31.2633 58.4834H31.2674Z" fill="#C6C6C6"/>
<path d="M16.6804 46.2968C16.7008 46.3255 16.705 46.3582 16.709 46.391C16.7828 47.0503 16.365 47.7341 15.7426 47.9716C15.4805 48.0699 15.198 48.0945 14.9196 48.0945C14.334 48.0945 13.7607 47.9839 13.1792 47.9307C13.1055 47.9266 13.0318 47.9184 12.9622 47.9389C12.8967 47.9594 12.8434 48.0044 12.7902 48.0494C12.5813 48.2337 12.3889 48.4385 12.2251 48.6637C12.61 48.418 13.0031 48.3402 13.388 48.3525C13.2652 48.418 13.1546 48.4958 13.0523 48.59C12.5322 49.0936 12.6141 49.9454 12.3439 50.621C12.1842 51.0223 11.9016 51.3622 11.6231 51.6898C11.4839 51.8536 11.3447 52.0174 11.2096 52.1812C11.0294 52.2099 10.8123 52.1444 10.6404 52.0215C10.5912 51.9847 10.5462 51.9478 10.5011 51.9028C10.497 51.9028 10.4929 51.8946 10.4888 51.8905C10.3906 51.7922 10.3128 51.6816 10.2473 51.5629L10.2309 51.5383L10.2227 51.526C10.2227 51.5219 10.2145 51.5137 10.2145 51.5096V51.5178C10.538 52.3368 11.2218 52.9511 11.8811 53.5366C12.2333 53.725 12.5895 53.9256 12.8885 54.1959C13.1874 54.4662 13.429 54.8183 13.5068 55.2155C13.5805 55.6128 13.4659 56.055 13.1628 56.3212C13.1096 56.3703 13.0441 56.4113 12.9745 56.4031C12.9253 56.4031 12.8803 56.3744 12.8393 56.3498C12.6469 56.2393 12.4503 56.1246 12.2538 56.0141C11.6436 55.666 11.0335 55.3138 10.4233 54.9658C9.48144 54.028 8.76484 52.906 8.33897 51.6816C8.32259 51.6284 8.30215 51.5711 8.31853 51.5178C8.33491 51.4605 8.384 51.4236 8.42905 51.3868C9.03919 50.9241 9.66575 50.4818 10.3087 50.0641C10.7428 49.368 10.9393 48.635 10.9475 47.8979C10.9475 47.8283 10.9475 47.7505 10.9884 47.6932C11.0212 47.644 11.0744 47.6154 11.1236 47.5908C11.7173 47.2591 12.2292 46.7882 12.6018 46.2231C12.651 46.1494 12.696 46.0757 12.7697 46.0225C12.8721 45.9487 13.0031 45.9447 13.126 45.9406C13.9573 45.9201 14.7885 46.0061 15.6157 46.0921C15.7099 46.1003 15.804 46.1125 15.8982 46.1207C16.1111 46.1453 16.3241 46.174 16.5329 46.2149C16.5862 46.2231 16.6435 46.2395 16.6763 46.2845L16.6804 46.2968Z" fill="#FFFEFF"/>
<path d="M14.355 58.4833C14.3304 58.643 14.2772 58.8149 14.1461 58.905C13.9127 59.0606 13.6138 58.8927 13.3804 58.7412C13.3149 58.7003 13.2493 58.6594 13.1838 58.6226C13.1838 58.6226 13.1756 58.6225 13.1716 58.6143C12.1806 58.0451 11.0381 57.7381 10.0635 57.1361C9.98158 57.087 9.90381 57.0337 9.85058 56.9599C9.78506 56.8699 9.76049 56.7594 9.74002 56.6529C9.64584 56.1943 9.55984 55.7274 9.49023 55.2646C9.49842 55.2769 9.50658 55.2933 9.51887 55.3056C9.5721 55.3711 9.64991 55.408 9.72771 55.4489C10.084 55.625 10.4402 55.8011 10.7965 55.9772C11.3124 56.2351 11.8284 56.4891 12.3444 56.7471C12.6023 56.874 12.8808 57.005 13.1675 56.9722C13.3763 56.9477 13.5605 56.8371 13.7039 56.6856C14.1953 57.1319 14.4533 57.824 14.3591 58.4833H14.355Z" fill="#FFFEFF"/>
<path d="M16.6819 46.2964C16.7023 46.3251 16.7065 46.3578 16.7106 46.3906C16.7843 47.0499 16.3665 47.7337 15.7441 47.9712C15.482 48.0695 15.1995 48.0941 14.9211 48.0941C14.3355 48.0941 13.7622 47.9835 13.1807 47.9303C13.107 47.9262 13.0333 47.918 12.9637 47.9384C12.8982 47.9589 12.8449 48.004 12.7917 48.049C12.5829 48.2333 12.3904 48.438 12.2266 48.6632C12.6115 48.4176 13.0046 48.3397 13.3895 48.352C13.2667 48.4176 13.1562 48.4954 13.0538 48.5895C12.5337 49.0932 12.6156 49.945 12.3454 50.6206C12.1857 51.0219 11.9031 51.3618 11.6247 51.6894C11.4854 51.8532 11.3462 52.017 11.2111 52.1808C11.0309 52.2094 10.8139 52.1439 10.6419 52.0211C10.5927 51.9842 10.5477 51.9474 10.5027 51.9023C10.4126 51.7959 10.3225 51.6812 10.2488 51.5665L10.2324 51.542C10.347 51.7058 10.9654 51.7795 10.9654 51.7795C11.1169 51.8696 11.4772 50.9073 11.6124 50.4773C11.7475 50.0432 12.3495 48.9048 12.3495 48.9048L11.2643 49.8999C11.2643 49.8999 11.9604 47.6027 12.4354 47.2874C12.9064 46.9761 14.4993 47.1686 15.4902 46.9147C16.4812 46.6608 15.8997 46.1162 15.8997 46.1162C16.1127 46.1408 16.3256 46.1694 16.5345 46.2104C16.5877 46.2186 16.645 46.235 16.6778 46.28L16.6819 46.2964Z" fill="#C6C6C6"/>
<path d="M13.515 55.2241C13.5887 55.6213 13.4741 56.0635 13.1711 56.3297C13.1178 56.3788 13.0523 56.4198 12.9827 56.4116C12.9335 56.4116 12.8885 56.3829 12.8476 56.3584C12.6551 56.2478 12.4585 56.1332 12.262 56.0226C12.9294 56.301 12.9622 55.1913 12.8967 54.8228C12.8353 54.4501 11.4758 54.057 10.8656 53.2503C10.2596 52.4436 10.2227 51.5264 10.2227 51.5264C10.5462 52.3454 11.2301 52.9596 11.8894 53.5411C12.2415 53.7294 12.5978 53.9301 12.8967 54.2003C13.1956 54.4706 13.4372 54.8228 13.515 55.22V55.2241Z" fill="#C6C6C6"/>
<path d="M14.3554 58.4834C14.3308 58.6431 14.2776 58.8151 14.1466 58.9052C13.9132 59.0608 13.6142 58.8929 13.3808 58.7414C13.3153 58.7005 13.2497 58.6595 13.1842 58.6227C13.6101 58.8274 13.8067 58.4834 13.909 58.3074C14.0114 58.1272 14.0278 57.3164 13.2416 57.3573C12.6232 57.386 10.8829 56.0552 10.7969 55.9814C11.3129 56.2353 11.8288 56.4892 12.3448 56.7472C12.6028 56.8741 12.8812 57.0052 13.1679 56.9724C13.3767 56.9478 13.561 56.8373 13.7043 56.6858C14.1957 57.1321 14.4537 57.8242 14.3595 58.4834H14.3554Z" fill="#C6C6C6"/>
<path d="M23.3352 54.3514C23.3352 54.3514 26.562 53.6757 27.598 51.9804L26.8896 52.177C26.8896 52.177 26.1321 49.6422 23.3352 49.331C20.5384 49.0198 17.5737 51.5054 18.7612 54.9287C19.4615 56.5749 21.7014 57.0212 21.7014 57.0212C21.7014 57.0212 20.2641 56.276 20.133 55.5635L21.0871 55.2031L19.9365 55.1908L20.0921 54.1139L19.3918 54.8919C19.3918 54.8919 18.8554 51.5136 21.3656 50.8093C21.3656 50.8093 20.3992 52.1688 21.3124 53.1475C22.2214 54.122 24.2852 53.2294 23.7939 52.0132C23.3066 50.8011 22.2214 51.2843 22.2214 51.2843C22.2214 51.2843 23.8471 51.8043 22.9995 52.6438C21.8897 53.7412 20.1371 51.0509 22.9462 50.3957C23.9454 50.1664 26.0092 51.6446 25.6243 52.4145C25.2393 53.1843 23.3434 54.3514 23.3434 54.3514H23.3352Z" fill="#FFFEFF"/>
<path d="M28.0889 52.6719C28.0889 52.6719 28.7974 56.3245 22.5772 58.3311C21.533 58.6668 20.4437 58.8593 19.3463 58.8511C17.1842 58.8388 16.9098 58.114 16.9098 58.114L17.3275 57.7414L15.6035 57.8847C15.6035 57.8847 17.524 60.6733 22.8597 59.2155L21.3282 60.3376C21.3282 60.3376 26.4264 59.6128 27.5935 56.8692L28.2118 57.25C28.2118 57.25 29.4075 54.8586 28.0848 52.6719H28.0889Z" fill="#FFF539"/>
<path d="M18.0564 54.5314C18.0564 54.5314 17.4422 52.8852 19.0679 50.6248C20.6936 48.3644 23.1464 48.9909 23.1464 48.9909C23.1464 48.9909 24.8171 47.6847 28.0398 48.7821L27.6672 49.3103L29.4444 48.8927C29.4444 48.8927 26.4837 47.1073 22.8843 48.3235C23.5845 47.7297 23.7401 47.6191 23.7401 47.6191C23.7401 47.6191 16.1236 48.1023 18.0564 54.5355V54.5314Z" fill="#FFF539"/>
<path d="M22.9126 57.2215C22.9126 57.2215 20.6112 58.0732 18.6334 56.1732C17.4418 55.0266 16.9136 53.364 17.1224 51.722C17.2698 50.5427 17.581 49.5394 17.581 49.5394L17.8226 49.8916L17.9495 48.6631C17.9495 48.6631 15.8325 50.1373 16.07 53.708C16.1068 54.2936 16.2542 54.8751 16.5286 55.3951C16.7333 55.7882 16.8849 55.907 16.8849 55.907L15.6113 55.3132C15.6113 55.3132 17.2534 57.5777 18.6129 57.8193L17.5564 58.1756C17.5564 58.1756 20.9675 58.9618 22.9208 57.2215H22.9126Z" fill="#FFF539"/>
<path d="M24.5312 49.1958C24.5312 49.1958 26.9677 49.7773 27.0905 51.3292L27.3853 50.7764C27.3853 50.7764 30.2396 52.3079 29.0357 56.5503C29.0357 56.5503 30.0185 55.1457 30.0021 53.7534C29.9816 52.2547 28.9496 51.3374 28.9496 51.3374L30.0553 51.7264C30.0553 51.7264 29.5967 50.3915 27.5042 49.8059C27.0701 49.2122 26.7589 48.7617 26.7589 48.7617L26.8858 49.5479C26.8858 49.5479 25.9481 49.0688 24.5354 49.1999L24.5312 49.1958Z" fill="#FFF539"/>
<path d="M23.0449 57.7462C23.0449 57.7462 26.7098 56.4031 27.3773 53.2295C27.0538 53.6513 26.1652 54.4907 24.474 54.6873C24.474 54.6873 25.6861 54.7856 26.0997 54.6381C26.0997 54.6381 25.162 56.4399 23.049 57.7503L23.0449 57.7462Z" fill="#FFF539"/>
<path d="M4.4082 49.1751L6.54983 48.3726L7.48348 46.2021L8.10592 49.085L6.19358 49.9491C6.19358 49.9491 5.92331 53.229 9.3139 58.1839C9.3139 58.1839 4.77265 55.4813 4.4082 49.1711V49.1751Z" fill="#FFF539"/>
<path d="M41.0424 49.1751L38.9008 48.3726L37.9671 46.2021L37.3447 49.085L39.257 49.9491C39.257 49.9491 39.5273 53.229 36.1367 58.1839C36.1367 58.1839 40.678 55.4813 41.0424 49.1711V49.1751Z" fill="#FFF539"/>
<path d="M89.5951 29.1924V24.8149H100.352V20.8142H89.5951V18.3818H100.84V14.1641H84.9473V33.4102H101.004V29.1924H89.5951Z" fill="#111737"/>
<path d="M102.08 14.1641V18.1648H108.46V33.4102H113.108V18.1648H119.488V14.1641H102.08Z" fill="#111737"/>
<path d="M131.351 14.1641H126.109L117.432 33.4102H122.297L123.865 29.8148H133.595L135.163 33.4102H140.028L131.351 14.1641ZM125.405 26.3546L128.57 19.1394H128.894L132.055 26.3546H125.405Z" fill="#111737"/>
<path d="M72.1381 38.627V51.3294H71.8105L64.8942 38.627H58.8379V57.869H63.4897V45.1665H63.8131L70.7295 57.869H76.7859V38.627H72.1381Z" fill="#111737"/>
<path d="M80.0293 38.627V57.869H84.677V38.627H80.0293Z" fill="#111737"/>
<path d="M101.216 38.627V51.3294H100.893L93.9722 38.627H87.9199V57.869H92.5677V45.1665H92.8912L99.8116 57.869H105.868V38.627H101.216Z" fill="#111737"/>
<path d="M114.812 53.4383V53.1148L125.245 43.115V38.627H108.677V43.0577H118.571V43.3852L108.137 53.385V57.869H125.651V53.4383H114.812Z" fill="#111737"/>
<path d="M81.7039 14.1641V33.4102H77.0561V19.9502H76.7326L73.0022 33.4102H67.5436L63.8131 19.9502H63.4897V33.4102H58.8379V15.7119L58.8501 14.1641H66.5158L70.1111 27.1368H70.4346L74.03 14.1641H81.7039Z" fill="#111737"/>
<path d="M140.261 38.627H135.081L126.408 57.869H131.273L132.837 54.2736H142.567L144.135 57.869H149L141.281 40.7481L140.261 38.627ZM134.381 50.8175L137.542 43.5982H137.866L141.027 50.8175H134.381Z" fill="#111737"/>
</g>
<defs>
<clipPath id="clip0_4488_1864">
<rect width="149" height="65" fill="white"/>
</clipPath>
</defs>
</svg>
